<svg width="70" height="70" fill="none"  xmlns="http://www.w3.org/2000/svg"><g clip-path="url(#a)" transform="translate(0 .002)"><path fill="#015c6b" d="M66.135 33.721a32.547 32.547 0 0 0-1.97-6.635c-.92-2.218-2.177-4.404-3.746-6.503-1.6-2.132-3.626-4.047-6.023-5.68-2.386-1.627-5.224-2.938-8.444-3.898-3.208-.96-6.961-1.444-11.166-1.444H20.702v7.71h-7.767V70.09h20.56c5.34 0 10.135-.856 14.246-2.547 4.119-1.69 7.628-3.98 10.436-6.79a28.641 28.641 0 0 0 6.394-9.695 30.392 30.392 0 0 0 2.148-11.235c0-1.863-.202-3.915-.595-6.1h.01zM33.506 66.266H16.8V21.1h3.885v41.783h11.687c3.451 0 6.776-.47 9.875-1.402 3.156-.95 5.964-2.399 8.351-4.307 2.42-1.932 4.36-4.376 5.767-7.261 1.414-2.892 2.132-6.286 2.132-10.086 0-1.955-.319-4.249-.944-6.82-.649-2.667-1.888-5.231-3.672-7.617-1.806-2.41-4.32-4.467-7.466-6.118-3.167-1.662-7.272-2.5-12.19-2.5h-9.665V13.39h10.235c3.822 0 7.204.43 10.053 1.282 2.837.845 5.316 1.99 7.372 3.386 2.045 1.392 3.765 3.014 5.108 4.807 1.378 1.84 2.48 3.749 3.273 5.67a29.066 29.066 0 0 1 1.742 5.858c.353 1.967.533 3.795.533 5.428 0 3.37-.631 6.676-1.883 9.832-1.238 3.134-3.11 5.957-5.547 8.407-2.444 2.448-5.525 4.45-9.167 5.944-3.649 1.502-7.947 2.26-12.777 2.26h.007zm17.288-38.593c1.477 1.973 2.49 4.07 3.022 6.233.556 2.276.834 4.266.834 5.916 0 3.214-.584 6.05-1.742 8.417-1.16 2.375-2.745 4.377-4.72 5.952-2.005 1.598-4.374 2.818-7.055 3.622-2.739.822-5.687 1.243-8.756 1.243h-7.83V20.594h9.69c4.285 0 7.782.695 10.394 2.059 2.63 1.38 4.708 3.064 6.168 5.013l-.005.006z" style="stroke-width:1.23051"/><path fill="#ebb785" d="m10.621 16.32 8.173-8.116L10.621.09 2.447 8.204Z" style="stroke-width:1.23051"/></g><defs><clipPath id="a"><path fill="#fff" d="M0 0h133v82H0Z"/></clipPath></defs></svg>