<?xml version="1.0" standalone="no"?>
<!DOCTYPE svg PUBLIC "-//W3C//DTD SVG 20010904//EN"
 "http://www.w3.org/TR/2001/REC-SVG-20010904/DTD/svg10.dtd">
<svg version="1.0" xmlns="http://www.w3.org/2000/svg"
 width="700.000000pt" height="700.000000pt" viewBox="0 0 700.000000 700.000000"
 preserveAspectRatio="xMidYMid meet">
<metadata>
Created by potrace 1.14, written by Peter Selinger 2001-2017
</metadata>
<g transform="translate(0.000000,700.000000) scale(0.100000,-0.100000)"
fill="#000000" stroke="none">
<path d="M650 6585 l-405 -405 405 -405 c223 -223 407 -405 410 -405 3 1 190
183 415 405 l410 403 -409 404 c-225 221 -411 404 -415 406 -3 1 -188 -180
-411 -403z"/>
<path d="M2070 5666 l0 -386 -390 0 -390 0 0 -2640 0 -2641 1273 4 c1267 3
1273 3 1412 25 424 69 678 149 1031 322 337 166 602 357 849 611 214 220 374
447 510 724 292 594 375 1219 255 1918 -104 607 -394 1189 -794 1591 -465 466
-1103 749 -1881 833 -122 13 -309 17 -1012 20 l-863 5 0 -386z m1645 -16 c494
-27 877 -123 1255 -315 357 -182 627 -421 848 -751 224 -334 366 -712 433
-1154 32 -207 34 -607 5 -795 -120 -778 -541 -1415 -1202 -1816 -361 -219
-723 -345 -1188 -411 -145 -21 -190 -22 -1168 -25 l-1018 -4 0 2255 0 2256
190 0 190 0 0 -2091 0 -2090 753 4 c810 4 831 5 1117 63 721 144 1268 498
1603 1037 322 520 402 1179 226 1879 -96 383 -284 712 -561 984 -278 273 -615
465 -980 558 -301 78 -540 96 -1255 96 l-503 0 0 165 0 165 538 0 c295 0 618
-5 717 -10z m94 -734 c256 -33 442 -85 626 -176 526 -258 851 -678 969 -1251
54 -265 68 -475 46 -700 -32 -322 -120 -573 -291 -829 -298 -447 -791 -725
-1474 -831 -128 -20 -187 -22 -682 -26 l-543 -5 0 1922 0 1922 613 -5 c479 -4
639 -9 736 -21z"/>
</g>
</svg>
