<?xml version="1.0" encoding="UTF-8"?>
<svg id="Capa_2" data-name="Capa 2" xmlns="http://www.w3.org/2000/svg" viewBox="0 0 163.8 163.8">
  <defs>
    <style>
      .cls-1 {
        fill: #0f869b;
        fill-rule: evenodd;
        stroke-width: 0px;
      }
    </style>
  </defs>
  <g id="Capa_1-2" data-name="Capa 1">
    <g>
      <path class="cls-1" d="m159.01,47.98h-2.74C143.33,19.36,114.63,0,81.9,0S20.48,19.32,7.54,47.99h-2.74c-2.66,0-4.8,2.15-4.8,4.8v58.23c0,2.66,2.15,4.8,4.8,4.8h2.74c12.93,28.63,41.63,47.99,74.36,47.99s61.42-19.33,74.36-47.99h2.74c2.65,0,4.8-2.14,4.8-4.8v-58.23c0-2.65-2.15-4.8-4.8-4.8h0Zm-25.6-16.78c4.79,4.91,8.9,10.54,12.18,16.78h-24.22c-1.05-4.51-2.31-8.79-3.76-12.81,5.62-1.08,10.92-2.4,15.8-3.97h0Zm-8.58-7.49c-3.48.93-7.17,1.73-11.01,2.41-2.09-4.32-4.58-8.53-7.56-12.32,6.68,2.38,12.93,5.73,18.57,9.91h0Zm-38.13-13.33c7.51,2.47,13.35,10.25,17.1,17.19-5.51.62-11.24,1.01-17.1,1.16V10.39h0Zm0,27.94c7.3-.16,14.45-.71,21.26-1.6,1.33,3.51,2.51,7.27,3.53,11.26h-24.78v-9.66h0Zm-9.6-27.94v18.35c-5.86-.14-11.59-.53-17.1-1.16,3.74-6.94,9.59-14.72,17.1-17.19h0Zm0,27.94v9.65h-24.79c1.01-3.98,2.19-7.74,3.53-11.25,6.81.89,13.95,1.44,21.26,1.6h0Zm-19.57-24.53c-2.98,3.8-5.47,8-7.56,12.32-3.84-.68-7.52-1.48-11.01-2.41,5.65-4.19,11.9-7.54,18.57-9.91h0Zm-27.15,17.41c4.87,1.57,10.18,2.9,15.8,3.97-1.44,4.02-2.7,8.3-3.75,12.81h-24.22c3.28-6.24,7.4-11.88,12.18-16.78h0Zm0,101.39c-4.78-4.91-8.9-10.54-12.18-16.78h24.22c1.06,4.5,2.31,8.78,3.75,12.8-5.62,1.08-10.92,2.41-15.8,3.98h0Zm8.57,7.48c3.49-.93,7.17-1.72,11.01-2.4,2.09,4.32,4.58,8.52,7.56,12.33-6.67-2.39-12.92-5.74-18.57-9.93h0Zm38.14,13.34c-7.51-2.48-13.35-10.25-17.1-17.19,5.51-.63,11.25-1.02,17.1-1.16v18.35h0Zm0-27.95c-7.31.17-14.45.71-21.26,1.6-1.34-3.51-2.52-7.27-3.53-11.26h24.79v9.65h0Zm9.6,27.95v-18.35c5.86.14,11.58.53,17.1,1.16-3.74,6.93-9.59,14.71-17.1,17.19h0Zm0-27.95v-9.68h24.78c-1.01,3.98-2.19,7.78-3.53,11.29-6.81-.89-13.96-1.44-21.26-1.6h0Zm19.56,24.54c2.99-3.81,5.47-8.01,7.56-12.33,3.84.68,7.52,1.47,11.01,2.4-5.65,4.19-11.89,7.54-18.57,9.93h0Zm27.15-17.41c-4.87-1.57-10.18-2.9-15.8-3.98,1.44-4.02,2.7-8.34,3.75-12.84h24.23c-3.28,6.24-7.4,11.9-12.18,16.81h0Zm20.8-26.38H9.6v-48.63h144.61v48.63Z"/>
      <path class="cls-1" d="m103.24,68c-2.37-1.18-5.25-.22-6.44,2.15l-5.3,10.62-5.31-10.61c-.81-1.63-2.47-2.66-4.29-2.66s-3.48,1.03-4.29,2.66l-5.3,10.61-5.3-10.61c-1.19-2.38-4.07-3.33-6.44-2.15-2.37,1.18-3.33,4.07-2.15,6.44l9.6,19.19c1.76,3.53,6.82,3.53,8.58,0l5.3-10.61,5.3,10.61c1.76,3.53,6.82,3.53,8.59,0l9.6-19.2c1.19-2.37.23-5.25-2.15-6.44Z"/>
      <path class="cls-1" d="m125.09,81.9c0,2.65-2.14,4.8-4.79,4.8s-4.8-2.15-4.8-4.8,2.15-4.8,4.8-4.8,4.79,2.14,4.79,4.8Z"/>
      <path class="cls-1" d="m48.31,81.9c0,2.65-2.15,4.8-4.8,4.8s-4.79-2.15-4.79-4.8,2.14-4.8,4.79-4.8,4.8,2.14,4.8,4.8Z"/>
      <path class="cls-1" d="m29.12,81.9c0,2.65-2.16,4.8-4.8,4.8s-4.79-2.15-4.79-4.8,2.14-4.8,4.79-4.8,4.8,2.14,4.8,4.8Z"/>
      <path class="cls-1" d="m144.29,81.9c0,2.65-2.15,4.8-4.8,4.8s-4.8-2.15-4.8-4.8,2.15-4.8,4.8-4.8,4.8,2.14,4.8,4.8Z"/>
    </g>
  </g>
</svg>