<?xml version="1.0" encoding="UTF-8"?>
<svg id="Capa_2" data-name="Capa 2" xmlns="http://www.w3.org/2000/svg" viewBox="0 0 240.07 182.87">
  <defs>
    <style>
      .cls-1 {
        fill: #0f869b;
        fill-rule: evenodd;
        stroke-width: 0px;
      }
    </style>
  </defs>
  <g id="Capa_1-2" data-name="Capa 1">
    <g>
      <path class="cls-1" d="m233.03,84.4h-21.1c-3.88,0-7.02,3.15-7.02,7.04s3.15,7.04,7.02,7.04h21.1c3.89,0,7.04-3.16,7.04-7.04s-3.15-7.04-7.04-7.04Z"/>
      <path class="cls-1" d="m223.94,128.66l-14.07-14.07c-2.74-2.74-7.2-2.74-9.95,0-2.75,2.74-2.75,7.19,0,9.94l14.06,14.06c2.75,2.75,7.2,2.75,9.95,0,2.74-2.74,2.74-7.19,0-9.94Z"/>
      <path class="cls-1" d="m223.94,44.27c-2.75-2.75-7.2-2.75-9.95,0l-14.06,14.06c-2.75,2.75-2.75,7.19,0,9.94,2.74,2.74,7.2,2.74,9.95,0l14.07-14.07c2.74-2.74,2.74-7.2,0-9.94Z"/>
      <path class="cls-1" d="m162.7,0c-10.56,0-19.33,7.8-20.86,17.95l-6.41,6.41c-11.17,11.16-27.61,17.84-43.99,17.84h-42.2c-9.17,0-16.98,5.87-19.89,14.06h-1.21c-15.51,0-28.13,12.61-28.13,28.13s12.61,28.14,28.13,28.14h1.21c2.13,5.98,6.87,10.73,12.85,12.85v36.38c0,11.63,9.47,21.1,21.1,21.1s21.1-9.47,21.1-21.1v-35.17h7.04c16.38,0,32.82,6.67,43.99,17.84l6.41,6.41c1.53,10.15,10.3,17.95,20.86,17.95,11.64,0,21.1-9.47,21.1-21.1V21.1c0-11.64-9.47-21.1-21.1-21.1h0ZM28.13,98.47c-7.76,0-14.06-6.32-14.06-14.07s6.3-14.07,14.06-14.07v28.14h0Zm42.2,63.3c0,3.88-3.16,7.04-7.04,7.04s-7.02-3.16-7.02-7.04v-35.17h14.06v35.17h0Zm14.07-49.23h-35.17c-3.88,0-7.04-3.16-7.04-7.04v-42.19c0-3.88,3.16-7.04,7.04-7.04h35.17v56.27h0Zm57.2,18.45c-11.88-10.29-27.15-16.68-43.18-18.13v-56.91c16.03-1.46,31.3-7.85,43.18-18.13v93.17h0Zm28.14,16.72c0,3.88-3.16,7.02-7.04,7.02s-7.03-3.15-7.03-7.02V21.1c0-3.88,3.15-7.04,7.03-7.04s7.04,3.16,7.04,7.04v126.6Z"/>
    </g>
  </g>
</svg>