<svg xmlns="http://www.w3.org/2000/svg" width="115" height="82" fill="none" viewBox="0 0 133 82"
    class="w-32 h-20 relative">
    <g clip-path="url(#a)">
        <path fill="#015C6B"
            d="M51.757 28.11a26.45 26.45 0 0 0-1.6-5.392c-.748-1.803-1.77-3.579-3.045-5.285-1.3-1.733-2.947-3.289-4.895-4.616-1.939-1.322-4.245-2.388-6.862-3.168-2.607-.78-5.657-1.173-9.074-1.173H14.835v6.266H8.523v42.923h16.708c4.34 0 8.237-.696 11.578-2.07 3.347-1.374 6.199-3.234 8.481-5.518a23.276 23.276 0 0 0 5.196-7.879 24.699 24.699 0 0 0 1.746-9.13c0-1.514-.164-3.182-.484-4.957h.009ZM25.241 54.558H11.663V17.854h3.158V51.81h9.497c2.805 0 5.507-.383 8.025-1.14 2.565-.771 4.847-1.949 6.787-3.5 1.967-1.57 3.543-3.556 4.687-5.901 1.149-2.35 1.732-5.108 1.732-8.196 0-1.589-.259-3.453-.767-5.542-.527-2.168-1.534-4.252-2.984-6.191-1.468-1.958-3.51-3.63-6.067-4.972-2.574-1.35-5.91-2.032-9.907-2.032H17.97v-2.748h8.317c3.106 0 5.855.35 8.17 1.042 2.306.687 4.32 1.617 5.991 2.752 1.662 1.131 3.06 2.449 4.151 3.906 1.12 1.496 2.015 3.047 2.66 4.608a23.621 23.621 0 0 1 1.416 4.761c.287 1.598.433 3.084.433 4.411 0 2.738-.513 5.425-1.53 7.99-1.006 2.547-2.527 4.841-4.508 6.832-1.986 1.99-4.49 3.616-7.45 4.831-2.965 1.22-6.458 1.837-10.383 1.837h.005ZM39.29 23.195c1.2 1.603 2.023 3.308 2.456 5.065.452 1.85.678 3.467.678 4.808 0 2.612-.475 4.916-1.416 6.84-.942 1.93-2.231 3.557-3.836 4.837-1.629 1.299-3.554 2.29-5.733 2.944-2.226.668-4.622 1.01-7.116 1.01H17.96V17.442h7.874c3.483 0 6.325.565 8.448 1.673 2.137 1.121 3.826 2.49 5.012 4.074l-.004.005Z"></path>
        <path fill="#EBB785" d="m6.643 13.188 6.642-6.595L6.643-.002 0 6.593l6.643 6.595Z"></path>
        <path fill="#0F8BA0"
            d="M57 9.438v6.425h6.476v34.414H57v6.425h19.405v-6.425h-6.476V15.863h6.476V9.438H57ZM106.774 9.438 85.793 56.702h7.53l4.707-11.681h22.661l4.773 11.681h7.53L112.62 9.438h-5.85.004Zm-6.457 29.975 9.013-21.695h.136l8.877 21.695h-18.026Z"></path>
        <g class="logo-subtitle">
            <g fill="#0F8BA0">
                <path
                    d="M8.531 76.379h1.215v5.48H8.53v-5.48ZM11.328 76.379h1.652l2.349 3.808h.014V76.38h1.214v5.48h-1.59l-2.41-3.9h-.015v3.9h-1.214v-5.48ZM20.89 77.715a.855.855 0 0 0-.4-.275 1.42 1.42 0 0 0-.48-.09c-.09 0-.18.01-.274.034a.851.851 0 0 0-.263.098.56.56 0 0 0-.203.173.432.432 0 0 0-.08.261c0 .164.061.29.188.379.128.088.283.163.471.224.188.06.395.126.612.187.216.06.424.15.612.262.188.112.348.266.47.457.123.192.189.45.189.767 0 .318-.057.57-.17.799a1.564 1.564 0 0 1-.466.565c-.193.15-.419.262-.677.332-.26.07-.528.107-.815.107-.357 0-.691-.056-.997-.163a2.478 2.478 0 0 1-.857-.528l.866-.944c.122.164.282.294.47.383a1.371 1.371 0 0 0 .89.103.947.947 0 0 0 .273-.103.588.588 0 0 0 .193-.177.46.46 0 0 0 .075-.257.473.473 0 0 0-.193-.393 1.768 1.768 0 0 0-.48-.243c-.193-.065-.4-.135-.626-.2a2.776 2.776 0 0 1-.625-.272 1.463 1.463 0 0 1-.48-.448c-.128-.187-.194-.43-.194-.734a1.614 1.614 0 0 1 .64-1.332c.194-.15.42-.261.674-.336.254-.075.517-.112.785-.112.311 0 .612.042.904.13.292.09.555.234.786.44l-.833.906h.014ZM24.182 77.445h-1.576v-1.07h4.367v1.07h-1.577v4.415h-1.214v-4.415ZM28.05 76.379h1.22v5.48h-1.22v-5.48ZM31.916 77.445H30.34v-1.07h4.367v1.07h-1.576v4.415h-1.215v-4.415ZM40.46 79.748c0 .327-.052.626-.147.897-.098.276-.244.51-.442.71-.193.201-.438.36-.73.472a2.79 2.79 0 0 1-1.007.168c-.38 0-.724-.056-1.011-.168a1.986 1.986 0 0 1-.73-.472 2.017 2.017 0 0 1-.442-.71 2.64 2.64 0 0 1-.146-.897v-3.37h1.214v3.323c0 .168.028.327.08.472.056.145.132.271.23.374a1.09 1.09 0 0 0 .8.336c.16 0 .311-.028.443-.088.137-.061.254-.14.353-.248.099-.108.174-.23.23-.374.057-.145.08-.304.08-.472V76.38h1.22v3.369h.004ZM43.127 77.445h-1.576v-1.07h4.367v1.07h-1.576v4.415h-1.215v-4.415ZM47.06 76.379h3.75v1.117h-2.536v1.023h2.395v1.117h-2.395v1.117h2.673v1.116h-3.892v-5.48l.004-.01ZM54.89 79.117c0-.44.076-.836.222-1.191a2.62 2.62 0 0 1 1.567-1.486c.363-.136.763-.201 1.196-.201.432 0 .828.065 1.195.2.362.136.678.328.946.575.264.253.47.552.621.912.146.355.221.752.221 1.191 0 .44-.075.837-.22 1.192a2.62 2.62 0 0 1-1.567 1.486c-.363.135-.764.2-1.197.2-.433 0-.828-.065-1.195-.2a2.85 2.85 0 0 1-.946-.575 2.708 2.708 0 0 1-.621-.911 3.109 3.109 0 0 1-.221-1.192Zm1.262 0c0 .257.042.495.122.71.08.215.198.402.349.556.15.16.33.28.54.37.213.088.448.13.707.13.259 0 .494-.042.706-.13a1.618 1.618 0 0 0 .89-.925c.08-.216.122-.45.122-.71 0-.263-.043-.487-.123-.706a1.595 1.595 0 0 0-.89-.93 1.808 1.808 0 0 0-.705-.131c-.259 0-.494.042-.706.13-.212.09-.39.211-.541.37-.151.159-.269.346-.349.56-.08.215-.122.454-.122.706ZM62.195 76.379H65.9v1.117h-2.49v1.116h2.302v1.117H63.41v2.136h-1.215v-5.486ZM71.104 77.445h-1.577v-1.07h4.368v1.07h-1.577v4.415h-1.214v-4.415ZM74.988 76.379h1.215v2.042h2.362v-2.042h1.22v5.48h-1.22v-2.368h-2.362v2.369h-1.215v-5.481ZM81.43 76.379h3.751v1.117h-2.536v1.023h2.395v1.117h-2.395v1.117h2.673v1.116h-3.892v-5.48l.004-.01ZM91.375 76.379h1.007l2.4 5.48h-1.374l-.475-1.163h-2.146l-.461 1.164h-1.342l2.387-5.481h.004Zm.466 1.593-.668 1.706h1.35l-.677-1.706h-.005ZM95.813 76.379h1.84l1.27 3.58h.015l1.28-3.58h1.831v5.48h-1.219v-4.204h-.015l-1.45 4.205h-.926l-1.398-4.206h-.014v4.206h-1.215v-5.481ZM103.696 76.379h3.751v1.117h-2.537v1.023h2.396v1.117h-2.396v1.117h2.674v1.116h-3.893v-5.48l.005-.01ZM109.036 76.379h2.137c.282 0 .546.028.8.08.254.055.475.144.663.27.189.127.339.3.452.51.113.215.17.481.17.803 0 .388-.104.715-.306.986-.203.271-.499.444-.89.514l1.403 2.318h-1.459l-1.153-2.192h-.603v2.192h-1.219v-5.481h.005Zm1.219 2.27h.715c.109 0 .226 0 .349-.008.122-.01.23-.033.329-.07a.555.555 0 0 0 .245-.183.554.554 0 0 0 .099-.35.572.572 0 0 0-.085-.332.608.608 0 0 0-.217-.192.97.97 0 0 0-.306-.088 2.719 2.719 0 0 0-.334-.024h-.795v1.248ZM114.555 76.379h1.214v5.48h-1.214v-5.48ZM120.963 77.804a1.155 1.155 0 0 0-.443-.332 1.439 1.439 0 0 0-.602-.116 1.518 1.518 0 0 0-1.144.5 1.765 1.765 0 0 0-.334.56 2.02 2.02 0 0 0-.122.706c0 .252.042.495.122.71.08.215.193.402.329.556.142.159.306.28.495.37.188.088.395.13.611.13.25 0 .471-.051.664-.154.193-.103.353-.248.475-.435l1.012.752a2.105 2.105 0 0 1-.889.72c-.358.154-.73.234-1.106.234-.433 0-.829-.066-1.196-.201a2.86 2.86 0 0 1-.946-.575 2.722 2.722 0 0 1-.621-.911 3.107 3.107 0 0 1-.221-1.192c0-.439.075-.836.221-1.191.146-.355.353-.659.621-.911.264-.253.579-.444.946-.575a3.4 3.4 0 0 1 1.685-.159c.17.028.334.075.499.136.165.06.32.144.471.247.15.103.287.23.405.379l-.937.757.005-.005ZM124.989 76.379h1.007l2.4 5.48h-1.374l-.476-1.163H124.4l-.461 1.164h-1.341l2.386-5.481h.005Zm.465 1.593-.673 1.706h1.351l-.678-1.706ZM132.155 77.715a.858.858 0 0 0-.4-.275c-.17-.061-.33-.09-.48-.09-.09 0-.179.01-.273.034a.855.855 0 0 0-.264.098.558.558 0 0 0-.202.173.431.431 0 0 0-.08.261c0 .164.061.29.188.379.122.088.282.163.471.224.188.06.395.126.612.187.216.06.423.15.611.262.189.112.349.266.471.457.127.192.188.45.188.767 0 .318-.056.57-.169.799a1.562 1.562 0 0 1-.466.565c-.193.15-.424.262-.678.332-.259.07-.527.107-.814.107-.358 0-.692-.056-.998-.163a2.47 2.47 0 0 1-.856-.528l.866-.944c.127.164.282.294.47.383a1.374 1.374 0 0 0 .89.103.953.953 0 0 0 .273-.103.587.587 0 0 0 .193-.177.46.46 0 0 0 .075-.257.473.473 0 0 0-.193-.393 1.767 1.767 0 0 0-.48-.243c-.193-.065-.4-.135-.626-.2a2.777 2.777 0 0 1-.626-.272 1.462 1.462 0 0 1-.48-.448c-.127-.187-.193-.43-.193-.734s.057-.551.174-.776c.118-.22.273-.406.466-.556.193-.15.419-.261.673-.336.254-.075.518-.112.786-.112.311 0 .612.042.904.13.292.09.555.234.786.44l-.833.906h.014Z"></path>
            </g>
            <g fill="#0F8BA0">
                <path
                    d="M8.531 66.029h1.878c.457 0 .885.051 1.294.15.41.102.768.266 1.069.49.306.224.546.519.725.879.178.36.268.799.268 1.313 0 .457-.085.86-.259 1.205-.174.346-.41.64-.701.874a3.065 3.065 0 0 1-1.017.537c-.386.122-.79.182-1.21.182H8.532v-5.64.01Zm1.252 4.49h.65a3.4 3.4 0 0 0 .805-.089c.249-.06.465-.154.644-.29.184-.135.325-.312.428-.532.104-.22.156-.49.156-.808 0-.276-.052-.514-.155-.72a1.424 1.424 0 0 0-.42-.504 1.87 1.87 0 0 0-.62-.3 2.834 2.834 0 0 0-.749-.098h-.739v3.346-.005ZM15.402 66.029h1.252v5.64h-1.252v-5.64ZM23.734 71.272a4.659 4.659 0 0 1-1.153.415c-.4.084-.81.127-1.228.127-.442 0-.852-.07-1.228-.206a2.83 2.83 0 0 1-.97-.594 2.664 2.664 0 0 1-.635-.934 3.19 3.19 0 0 1-.23-1.224c0-.449.074-.86.23-1.224.15-.365.367-.678.635-.935.273-.257.598-.453.97-.594.371-.14.78-.205 1.228-.205.447 0 .87.056 1.257.163.38.108.72.295 1.007.561l-.88.953a1.729 1.729 0 0 0-.58-.397 2.083 2.083 0 0 0-.8-.135c-.268 0-.508.046-.724.135a1.54 1.54 0 0 0-.555.379 1.698 1.698 0 0 0-.358.58 2.02 2.02 0 0 0-.122.723c0 .262.042.51.122.73.085.219.202.41.358.574.155.164.338.29.555.379.216.088.456.135.725.135.268 0 .508-.033.706-.093.197-.061.357-.122.475-.187v-.916h-1.017v-1.145h2.222v2.948l-.01-.013ZM25.621 66.029h1.252v5.64h-1.252v-5.64ZM29.912 67.132h-1.619v-1.098h4.49v1.098h-1.62v4.537h-1.251v-4.537ZM35.347 66.029h1.036l2.47 5.64h-1.411l-.49-1.197h-2.207l-.475 1.197h-1.38l2.453-5.64h.004Zm.48 1.64-.691 1.752h1.388l-.697-1.752ZM40.273 66.029h1.252v4.49h2.316v1.145h-3.568v-5.64.005Z"></path>
            </g>
            <g fill="#0F8BA0">
                <path
                    d="M47.855 66.188h1.827c.442 0 .86.051 1.26.145.401.098.745.257 1.041.476.297.22.532.505.706.855.174.35.264.776.264 1.276 0 .444-.085.836-.255 1.173-.169.336-.395.621-.682.85a3.12 3.12 0 0 1-.988.524 3.939 3.939 0 0 1-1.177.177h-1.99v-5.48l-.005.004Zm1.22 4.369h.63c.282 0 .541-.028.786-.084a1.63 1.63 0 0 0 .626-.28c.179-.132.315-.305.419-.52.103-.214.15-.476.15-.784 0-.267-.051-.5-.15-.701a1.443 1.443 0 0 0-.41-.491 1.758 1.758 0 0 0-.602-.29 2.67 2.67 0 0 0-.73-.098h-.715v3.252l-.005-.004ZM54.606 66.188h3.751v1.116h-2.536v1.024h2.395v1.116h-2.395v1.117h2.673v1.117h-3.892v-5.481l.004-.01ZM60.254 66.188h1.84l1.27 3.579h.015l1.28-3.58h1.831v5.481h-1.219v-4.205h-.014l-1.45 4.206h-.927l-1.398-4.206h-.014v4.206h-1.214v-5.481ZM68.098 68.93c0-.439.075-.836.22-1.19a2.62 2.62 0 0 1 1.567-1.486 3.395 3.395 0 0 1 1.197-.202c.433 0 .828.066 1.195.201.362.136.678.327.946.575.264.252.47.551.621.911.146.355.222.752.222 1.192 0 .439-.076.836-.222 1.191a2.62 2.62 0 0 1-1.567 1.486c-.362.135-.763.2-1.195.2-.433 0-.829-.065-1.196-.2a2.85 2.85 0 0 1-.946-.575 2.708 2.708 0 0 1-.621-.91 3.109 3.109 0 0 1-.221-1.192Zm1.261 0c0 .258.042.496.122.71.08.216.198.403.349.557.15.159.33.28.54.369.213.089.448.13.707.13.259 0 .494-.041.706-.13a1.618 1.618 0 0 0 .89-.925c.08-.215.122-.449.122-.71a2 2 0 0 0-.123-.706 1.595 1.595 0 0 0-.89-.93 1.808 1.808 0 0 0-.705-.13c-.259 0-.494.041-.706.13-.212.089-.39.21-.541.37-.151.158-.269.345-.349.56-.08.215-.122.453-.122.706ZM79.271 67.613a1.149 1.149 0 0 0-.442-.332 1.442 1.442 0 0 0-.603-.117 1.516 1.516 0 0 0-1.143.5 1.763 1.763 0 0 0-.334.561c-.08.215-.123.454-.123.706 0 .252.043.495.123.71.08.215.193.402.329.556.141.159.306.28.494.37.188.088.396.13.612.13.25 0 .47-.051.664-.154.193-.103.353-.248.475-.435l1.012.753a2.104 2.104 0 0 1-.89.72c-.357.153-.73.233-1.106.233-.433 0-.828-.066-1.195-.201a2.85 2.85 0 0 1-.946-.575 2.71 2.71 0 0 1-.621-.911 3.109 3.109 0 0 1-.221-1.191c0-.44.075-.837.22-1.192a2.62 2.62 0 0 1 1.567-1.486 3.393 3.393 0 0 1 1.686-.159c.17.028.334.075.499.136.165.06.32.144.47.247.151.103.287.23.405.379l-.937.757.005-.005ZM81.785 66.188h2.137c.282 0 .546.028.8.079.254.051.475.145.664.27.188.127.339.3.451.51.113.215.17.482.17.804 0 .388-.104.715-.306.986-.202.27-.499.444-.89.514l1.403 2.317h-1.46l-1.152-2.191h-.603v2.191h-1.214v-5.48ZM83 68.457h.716c.108 0 .226 0 .348-.009.123-.01.23-.033.33-.07a.554.554 0 0 0 .244-.182.555.555 0 0 0 .1-.35.568.568 0 0 0-.086-.332.605.605 0 0 0-.216-.192.975.975 0 0 0-.306-.089 2.745 2.745 0 0 0-.334-.023h-.796v1.247ZM89.438 66.188h1.007l2.4 5.48h-1.374l-.475-1.163H88.85l-.462 1.163h-1.341l2.386-5.48h.005Zm.466 1.593-.673 1.705h1.35l-.677-1.705ZM97.79 67.613a1.15 1.15 0 0 0-.442-.332 1.442 1.442 0 0 0-.602-.117 1.515 1.515 0 0 0-1.144.5 1.763 1.763 0 0 0-.334.561c-.08.215-.122.454-.122.706 0 .252.042.495.122.71.08.215.193.402.33.556.14.159.305.28.494.37.188.088.395.13.612.13.249 0 .47-.051.663-.154a1.28 1.28 0 0 0 .475-.435l1.012.753a2.104 2.104 0 0 1-.89.72c-.357.153-.729.233-1.105.233-.433 0-.828-.066-1.195-.201a2.849 2.849 0 0 1-.947-.575 2.709 2.709 0 0 1-.62-.911 3.109 3.109 0 0 1-.222-1.191c0-.44.075-.837.221-1.192a2.619 2.619 0 0 1 1.567-1.486 3.392 3.392 0 0 1 1.685-.159c.17.028.335.075.5.136.164.06.32.144.47.247.15.103.287.23.405.379l-.937.757.005-.005ZM101.654 69.332l-2.076-3.144h1.511l1.172 2.05 1.238-2.05h1.444l-2.075 3.144v2.337h-1.219v-2.337h.005Z"></path>
            </g>
        </g>
    </g>
    <defs>
        <clipPath id="a">
            <path fill="#fff" d="M0 0h133v82H0z"></path>
        </clipPath>
    </defs>
</svg>