<svg width="133" height="82" viewBox="0 0 133 82" fill="none" xmlns="http://www.w3.org/2000/svg">
<g id="Capa_1" clip-path="url(#clip0_1118_18405)">
<path id="Vector" d="M51.757 28.1105C51.4323 26.3162 50.8957 24.5032 50.1568 22.7183C49.4085 20.9146 48.3872 19.139 47.1117 17.4335C45.8128 15.7 44.1655 14.144 42.217 12.8169C40.278 11.4946 37.9718 10.4292 35.355 9.6489C32.7476 8.86858 29.6978 8.47607 26.2809 8.47607H14.8348V14.7421H8.52344V57.6649H25.2314C29.5708 57.6649 33.4677 56.9686 36.8093 55.5949C40.1556 54.2211 43.0077 52.3614 45.2903 50.0765C47.573 47.7869 49.3191 45.1375 50.4863 42.1984C51.6441 39.2734 52.2324 36.2035 52.2324 33.0681C52.2324 31.5542 52.0677 29.8861 51.7476 28.1105H51.757ZM25.2408 54.5576H11.6627V17.854H14.8207V51.81H24.3183C27.1234 51.81 29.8249 51.4269 32.3429 50.6699C34.9079 49.8989 37.1905 48.7214 39.1296 47.1701C41.0969 45.6001 42.6735 43.6143 43.8172 41.2686C44.9656 38.9183 45.5492 36.1614 45.5492 33.0728C45.5492 31.4841 45.2903 29.6197 44.782 27.5311C44.2549 25.363 43.2477 23.279 41.7981 21.3398C40.3297 19.382 38.2871 17.7092 35.7315 16.3681C33.1571 15.0178 29.8202 14.3356 25.8244 14.3356H17.9693V11.588H26.2856C29.3919 11.588 32.1405 11.9385 34.4561 12.63C36.7622 13.3169 38.7766 14.2468 40.4474 15.3822C42.1088 16.513 43.5066 17.8307 44.5985 19.2885C45.7186 20.7838 46.6129 22.3351 47.2577 23.8958C47.9118 25.4798 48.3872 27.0825 48.6743 28.6572C48.9614 30.2552 49.1073 31.7411 49.1073 33.0681C49.1073 35.8063 48.5943 38.4931 47.5777 41.0583C46.5705 43.6049 45.0503 45.8992 43.0689 47.8897C41.0828 49.8803 38.5789 51.5063 35.6186 52.7212C32.6535 53.9408 29.1613 54.5576 25.2361 54.5576H25.2408ZM39.2896 23.1949C40.4898 24.7976 41.3134 26.5031 41.7464 28.26C42.1982 30.1104 42.4241 31.7271 42.4241 33.0681C42.4241 35.6801 41.9488 37.9837 41.0075 39.9089C40.0662 41.8387 38.7766 43.4647 37.1717 44.745C35.5433 46.044 33.6183 47.0346 31.4392 47.6888C29.2131 48.357 26.8175 48.6981 24.323 48.6981H17.9599V17.4429H25.8338C29.3166 17.4429 32.1593 18.0082 34.2819 19.1157C36.4187 20.2371 38.1083 21.6062 39.2943 23.1902L39.2896 23.1949Z" fill="#015C6B"/>
<path id="Vector_2" d="M6.64252 13.1881L13.2852 6.59326L6.64252 -0.00161999L-0.000112466 6.59326L6.64252 13.1881Z" fill="#EBB785"/>
<path id="Vector_3" d="M57 9.43848V15.8633H63.4761V50.2773H57V56.7021H63.4761H69.9287H76.4048V50.2773H69.9287V15.8633H76.4048V9.43848H57Z" fill="#0F8BA0"/>
<path id="Vector_4" d="M106.774 9.43848L85.793 56.7021H93.3233L98.0298 45.0206H120.691L125.464 56.7021H132.994L112.62 9.43848H106.77H106.774ZM100.317 39.4134L109.33 17.7184H109.466L118.343 39.4134H100.322H100.317Z" fill="#0F8BA0"/>
<g id="Group">
<path id="Vector_5" d="M8.53125 76.3789H9.74552V81.8599H8.53125V76.3789Z" fill="#0F8BA0"/>
<path id="Vector_6" d="M11.3281 76.3789H12.9801L15.3286 80.1871H15.3427V76.3789H16.557V81.8599H14.9662L12.5565 77.9583H12.5424V81.8599H11.3281V76.3789Z" fill="#0F8BA0"/>
<path id="Vector_7" d="M20.8892 77.7153C20.7904 77.5892 20.6586 77.5004 20.4892 77.4396C20.3197 77.3789 20.1597 77.3509 20.0091 77.3509C19.9197 77.3509 19.8303 77.3602 19.7361 77.3836C19.642 77.4023 19.5526 77.435 19.4726 77.4817C19.3878 77.5237 19.322 77.5845 19.2702 77.6546C19.2184 77.7247 19.1902 77.8134 19.1902 77.9162C19.1902 78.0798 19.2514 78.2059 19.3784 78.2947C19.5055 78.3835 19.6608 78.4583 19.8491 78.519C20.0373 78.5798 20.2444 78.6452 20.4609 78.7059C20.6774 78.7667 20.8845 78.8554 21.0728 78.9676C21.261 79.0797 21.421 79.2339 21.5434 79.4255C21.6658 79.6171 21.7317 79.8741 21.7317 80.1918C21.7317 80.5096 21.6752 80.7619 21.5622 80.9908C21.4493 81.2198 21.294 81.4067 21.0963 81.5562C20.9033 81.7057 20.6774 81.8179 20.4186 81.888C20.1597 81.9581 19.8914 81.9954 19.6043 81.9954C19.2467 81.9954 18.9125 81.9394 18.6066 81.8319C18.3007 81.7244 18.0136 81.5469 17.75 81.3039L18.616 80.36C18.7384 80.5236 18.8984 80.6544 19.0866 80.7432C19.2749 80.832 19.4726 80.8787 19.6749 80.8787C19.7738 80.8787 19.8726 80.8693 19.9762 80.846C20.0797 80.8226 20.1691 80.7899 20.2491 80.7432C20.3291 80.6965 20.395 80.6357 20.4421 80.5656C20.4892 80.4955 20.5174 80.4068 20.5174 80.3086C20.5174 80.1451 20.4515 80.0143 20.3244 79.9161C20.1974 79.8227 20.0373 79.7386 19.8444 79.6731C19.6514 79.6077 19.4443 79.5376 19.2184 79.4722C18.9925 79.4068 18.7854 79.3134 18.5925 79.2012C18.3995 79.0891 18.2395 78.9395 18.1124 78.7526C17.9853 78.5657 17.9194 78.3228 17.9194 78.019C17.9194 77.7153 17.9759 77.4677 18.0936 77.2434C18.2112 77.0191 18.3665 76.8369 18.5595 76.6873C18.7525 76.5378 18.9784 76.4257 19.2325 76.3509C19.4867 76.2761 19.7502 76.2388 20.0185 76.2388C20.3291 76.2388 20.6304 76.2808 20.9222 76.3696C21.214 76.4584 21.4775 76.6032 21.7081 76.8088L20.8751 77.7153H20.8892Z" fill="#0F8BA0"/>
<path id="Vector_8" d="M24.1821 77.4445H22.6055V76.3745H26.9731V77.4445H25.3964V81.8602H24.1821V77.4445Z" fill="#0F8BA0"/>
<path id="Vector_9" d="M28.0508 76.3789H29.2698V81.8599H28.0508V76.3789Z" fill="#0F8BA0"/>
<path id="Vector_10" d="M31.9165 77.4445H30.3398V76.3745H34.7074V77.4445H33.1308V81.8602H31.9165V77.4445Z" fill="#0F8BA0"/>
<path id="Vector_11" d="M40.4594 79.7479C40.4594 80.075 40.4076 80.374 40.3135 80.645C40.2146 80.9207 40.0687 81.1543 39.8711 81.3553C39.6781 81.5562 39.4334 81.715 39.1416 81.8272C38.8498 81.9393 38.5156 81.9954 38.1344 81.9954C37.7532 81.9954 37.4096 81.9393 37.1225 81.8272C36.8307 81.715 36.586 81.5562 36.393 81.3553C36.2 81.1543 36.0494 80.916 35.9506 80.645C35.8518 80.3693 35.8047 80.0703 35.8047 79.7479V76.3789H37.019V79.7011C37.019 79.8694 37.0472 80.0282 37.099 80.1731C37.1554 80.3179 37.2307 80.4441 37.3296 80.5469C37.4284 80.6544 37.5461 80.7338 37.6826 80.7945C37.8191 80.8553 37.9697 80.8833 38.1297 80.8833C38.2897 80.8833 38.4403 80.8553 38.5721 80.7945C38.7086 80.7338 38.8262 80.6544 38.9251 80.5469C39.0239 80.4394 39.0992 80.3179 39.1557 80.1731C39.2122 80.0282 39.2357 79.8694 39.2357 79.7011V76.3789H40.4547V79.7479H40.4594Z" fill="#0F8BA0"/>
<path id="Vector_12" d="M43.1274 77.4445H41.5508V76.3745H45.9184V77.4445H44.3417V81.8602H43.1274V77.4445Z" fill="#0F8BA0"/>
<path id="Vector_13" d="M47.0594 76.3789H50.8104V77.4957H48.2737V78.519H50.6693V79.6357H48.2737V80.7525H50.9469V81.8692H47.0547V76.3882L47.0594 76.3789Z" fill="#0F8BA0"/>
<path id="Vector_14" d="M54.8906 79.1171C54.8906 78.6779 54.9659 78.2807 55.1118 77.9256C55.2577 77.5705 55.4648 77.2668 55.7331 77.0144C55.9966 76.7621 56.312 76.5705 56.6791 76.4397C57.0415 76.3042 57.4415 76.2388 57.8745 76.2388C58.3075 76.2388 58.7029 76.3042 59.07 76.4397C59.4324 76.5752 59.7477 76.7668 60.016 77.0144C60.2795 77.2668 60.4866 77.5658 60.6372 77.9256C60.7831 78.2807 60.8584 78.6779 60.8584 79.1171C60.8584 79.5563 60.7831 79.9535 60.6372 80.3086C60.4913 80.6637 60.2842 80.9675 60.016 81.2198C59.7524 81.4721 59.4371 81.6637 59.07 81.7945C58.7076 81.93 58.3075 81.9954 57.8745 81.9954C57.4415 81.9954 57.0462 81.93 56.6791 81.7945C56.3167 81.659 56.0014 81.4674 55.7331 81.2198C55.4695 80.9675 55.2624 80.6637 55.1118 80.3086C54.9659 79.9535 54.8906 79.5563 54.8906 79.1171ZM56.152 79.1171C56.152 79.3741 56.1943 79.6124 56.2743 79.8273C56.3543 80.0423 56.472 80.2292 56.6226 80.3834C56.7732 80.5423 56.9521 80.6638 57.1638 80.7525C57.3756 80.8413 57.611 80.8834 57.8698 80.8834C58.1287 80.8834 58.364 80.8413 58.5758 80.7525C58.7876 80.6638 58.9664 80.5423 59.117 80.3834C59.2676 80.2245 59.3853 80.0423 59.4653 79.8273C59.5453 79.6124 59.5877 79.3788 59.5877 79.1171C59.5877 78.8554 59.5453 78.6312 59.4653 78.4115C59.3853 78.1919 59.2676 78.0097 59.117 77.8508C58.9664 77.692 58.7876 77.5705 58.5758 77.4817C58.364 77.3929 58.1287 77.3509 57.8698 77.3509C57.611 77.3509 57.3756 77.3929 57.1638 77.4817C56.9521 77.5705 56.7732 77.692 56.6226 77.8508C56.472 78.0097 56.3543 78.1966 56.2743 78.4115C56.1943 78.6265 56.152 78.8648 56.152 79.1171Z" fill="#0F8BA0"/>
<path id="Vector_15" d="M62.1953 76.3789H65.8993V77.4957H63.4096V78.6124H65.711V79.7292H63.4096V81.8646H62.1953V76.3836V76.3789Z" fill="#0F8BA0"/>
<path id="Vector_16" d="M71.104 77.4445H69.5273V76.3745H73.8949V77.4445H72.3183V81.8602H71.104V77.4445Z" fill="#0F8BA0"/>
<path id="Vector_17" d="M74.9883 76.3789H76.2026V78.4208H78.5652V76.3789H79.7842V81.8599H78.5652V79.4909H76.2026V81.8599H74.9883V76.3789Z" fill="#0F8BA0"/>
<path id="Vector_18" d="M81.4305 76.3789H85.1815V77.4957H82.6448V78.519H85.0403V79.6357H82.6448V80.7525H85.318V81.8692H81.4258V76.3882L81.4305 76.3789Z" fill="#0F8BA0"/>
<path id="Vector_19" d="M91.3753 76.3789H92.3824L94.7827 81.8599H93.4084L92.9331 80.6964H90.7869L90.3257 81.8599H88.9844L91.3705 76.3789H91.3753ZM91.8412 77.9723L91.1729 79.6778H92.5236L91.8459 77.9723H91.8412Z" fill="#0F8BA0"/>
<path id="Vector_20" d="M95.8125 76.3789H97.6527L98.9235 79.9581H98.9376L100.218 76.3789H102.049V81.8599H100.83V77.6545H100.815L99.3659 81.8599H98.4387L97.0409 77.6545H97.0268V81.8599H95.8125V76.3789Z" fill="#0F8BA0"/>
<path id="Vector_21" d="M103.696 76.3789H107.447V77.4957H104.91V78.519H107.306V79.6357H104.91V80.7525H107.584V81.8692H103.691V76.3882L103.696 76.3789Z" fill="#0F8BA0"/>
<path id="Vector_22" d="M109.036 76.3789H111.173C111.455 76.3789 111.719 76.4069 111.973 76.4583C112.227 76.5144 112.448 76.6032 112.636 76.7294C112.825 76.8555 112.975 77.0284 113.088 77.2387C113.201 77.4536 113.258 77.72 113.258 78.0424C113.258 78.4302 113.154 78.7573 112.952 79.0283C112.749 79.2993 112.453 79.4722 112.062 79.5423L113.465 81.8599H112.006L110.853 79.6684H110.25V81.8599H109.031V76.3789H109.036ZM110.255 78.6498H110.97C111.079 78.6498 111.196 78.6498 111.319 78.6405C111.441 78.6311 111.549 78.6077 111.648 78.5704C111.747 78.533 111.827 78.4722 111.893 78.3881C111.959 78.304 111.992 78.1872 111.992 78.0377C111.992 77.8975 111.963 77.7854 111.907 77.7059C111.85 77.6218 111.775 77.5611 111.69 77.5144C111.601 77.4723 111.502 77.4396 111.384 77.4256C111.272 77.4116 111.159 77.4022 111.05 77.4022H110.255V78.6498Z" fill="#0F8BA0"/>
<path id="Vector_23" d="M114.555 76.3789H115.769V81.8599H114.555V76.3789Z" fill="#0F8BA0"/>
<path id="Vector_24" d="M120.963 77.804C120.845 77.6592 120.694 77.547 120.52 77.4723C120.346 77.3928 120.144 77.3555 119.918 77.3555C119.692 77.3555 119.475 77.3975 119.282 77.4863C119.089 77.5751 118.92 77.6966 118.774 77.8554C118.633 78.0143 118.52 78.2012 118.44 78.4162C118.36 78.6311 118.318 78.8694 118.318 79.1217C118.318 79.374 118.36 79.617 118.44 79.832C118.52 80.0469 118.633 80.2338 118.769 80.388C118.911 80.5469 119.075 80.6684 119.264 80.7571C119.452 80.8459 119.659 80.888 119.875 80.888C120.125 80.888 120.346 80.8366 120.539 80.7338C120.732 80.631 120.892 80.4861 121.014 80.2992L122.026 81.0515C121.791 81.3786 121.494 81.6169 121.137 81.7711C120.779 81.9253 120.407 82.0047 120.031 82.0047C119.598 82.0047 119.202 81.9393 118.835 81.8038C118.473 81.6683 118.158 81.4767 117.889 81.2291C117.626 80.9768 117.419 80.673 117.268 80.3179C117.122 79.9628 117.047 79.5656 117.047 79.1264C117.047 78.6872 117.122 78.29 117.268 77.9349C117.414 77.5797 117.621 77.276 117.889 77.0237C118.153 76.7714 118.468 76.5798 118.835 76.449C119.198 76.3135 119.598 76.248 120.031 76.248C120.186 76.248 120.351 76.2621 120.52 76.2901C120.69 76.3181 120.854 76.3649 121.019 76.4256C121.184 76.4864 121.339 76.5705 121.49 76.6733C121.64 76.7761 121.777 76.9022 121.895 77.0517L120.958 77.8087L120.963 77.804Z" fill="#0F8BA0"/>
<path id="Vector_25" d="M124.989 76.3789H125.996L128.396 81.8599H127.022L126.546 80.6964H124.4L123.939 81.8599H122.598L124.984 76.3789H124.989ZM125.454 77.9723L124.781 79.6778H126.132L125.454 77.9723Z" fill="#0F8BA0"/>
<path id="Vector_26" d="M132.155 77.7153C132.056 77.5892 131.924 77.5004 131.755 77.4396C131.585 77.3789 131.425 77.3509 131.275 77.3509C131.185 77.3509 131.096 77.3602 131.002 77.3836C130.908 77.4023 130.818 77.435 130.738 77.4817C130.653 77.5237 130.588 77.5845 130.536 77.6546C130.484 77.7247 130.456 77.8134 130.456 77.9162C130.456 78.0798 130.517 78.2059 130.644 78.2947C130.766 78.3835 130.926 78.4583 131.115 78.519C131.303 78.5798 131.51 78.6452 131.727 78.7059C131.943 78.7667 132.15 78.8554 132.338 78.9676C132.527 79.0797 132.687 79.2339 132.809 79.4255C132.936 79.6171 132.997 79.8741 132.997 80.1918C132.997 80.5096 132.941 80.7619 132.828 80.9908C132.715 81.2198 132.56 81.4067 132.362 81.5562C132.169 81.7057 131.938 81.8179 131.684 81.888C131.425 81.9581 131.157 81.9954 130.87 81.9954C130.512 81.9954 130.178 81.9394 129.872 81.8319C129.566 81.7244 129.279 81.5469 129.016 81.3039L129.882 80.36C130.009 80.5236 130.164 80.6544 130.352 80.7432C130.541 80.832 130.738 80.8787 130.941 80.8787C131.039 80.8787 131.138 80.8693 131.242 80.846C131.345 80.8226 131.435 80.7899 131.515 80.7432C131.595 80.6965 131.661 80.6357 131.708 80.5656C131.755 80.4955 131.783 80.4068 131.783 80.3086C131.783 80.1451 131.717 80.0143 131.59 79.9161C131.463 79.8227 131.303 79.7386 131.11 79.6731C130.917 79.6077 130.71 79.5376 130.484 79.4722C130.258 79.4068 130.051 79.3134 129.858 79.2012C129.665 79.0891 129.505 78.9395 129.378 78.7526C129.251 78.5657 129.185 78.3228 129.185 78.019C129.185 77.7153 129.242 77.4677 129.359 77.2434C129.477 77.0238 129.632 76.8369 129.825 76.6873C130.018 76.5378 130.244 76.4257 130.498 76.3509C130.752 76.2761 131.016 76.2388 131.284 76.2388C131.595 76.2388 131.896 76.2808 132.188 76.3696C132.48 76.4584 132.743 76.6032 132.974 76.8088L132.141 77.7153H132.155Z" fill="#0F8BA0"/>
</g>
<g id="Group_2">
<path id="Vector_27" d="M8.53125 66.0289H10.4091C10.8657 66.0289 11.2939 66.0803 11.7034 66.1784C12.1129 66.2812 12.4706 66.4447 12.7718 66.669C13.0777 66.8933 13.3177 67.1877 13.4966 67.5475C13.6754 67.9073 13.7648 68.3465 13.7648 68.8605C13.7648 69.3184 13.6801 69.7203 13.506 70.066C13.3318 70.4118 13.0965 70.7062 12.8047 70.9398C12.5129 71.1781 12.1693 71.3557 11.7881 71.4772C11.4022 71.5987 10.9974 71.6594 10.5786 71.6594H8.53125V66.0195V66.0289ZM9.78317 70.5193H10.4327C10.7198 70.5193 10.988 70.4912 11.2375 70.4305C11.4869 70.3698 11.7034 70.2763 11.8823 70.1408C12.0658 70.0053 12.207 69.8277 12.3105 69.6081C12.4141 69.3885 12.4659 69.1175 12.4659 68.7998C12.4659 68.5241 12.4141 68.2858 12.3105 68.0802C12.207 67.8746 12.0658 67.7064 11.8917 67.5755C11.7175 67.4447 11.5057 67.3419 11.2704 67.2765C11.0304 67.2111 10.7809 67.1783 10.5221 67.1783H9.78317V70.5239V70.5193Z" fill="#0F8BA0"/>
<path id="Vector_28" d="M15.4023 66.0288H16.6543V71.6687H15.4023V66.0288Z" fill="#0F8BA0"/>
<path id="Vector_29" d="M23.7344 71.2715C23.3673 71.4631 22.9814 71.5986 22.5814 71.6873C22.1813 71.7714 21.7718 71.8135 21.353 71.8135C20.9106 71.8135 20.5011 71.7434 20.1246 71.6079C19.7481 71.4677 19.428 71.2715 19.1551 71.0145C18.8821 70.7575 18.6703 70.4444 18.5197 70.08C18.3691 69.7155 18.2891 69.3043 18.2891 68.8557C18.2891 68.4072 18.3644 67.996 18.5197 67.6315C18.6703 67.267 18.8868 66.954 19.1551 66.697C19.428 66.44 19.7528 66.2437 20.1246 66.1035C20.4964 65.9634 20.9059 65.8979 21.353 65.8979C21.8001 65.8979 22.2237 65.954 22.6096 66.0615C22.9908 66.169 23.3297 66.3559 23.6168 66.6222L22.7367 67.5754C22.5672 67.4025 22.3743 67.267 22.1578 67.1783C21.946 67.0895 21.6777 67.0427 21.3577 67.0427C21.0894 67.0427 20.8494 67.0895 20.6329 67.1783C20.4164 67.267 20.2281 67.3932 20.0775 67.5567C19.9222 67.7203 19.8045 67.9119 19.7198 68.1361C19.6351 68.3604 19.5975 68.5987 19.5975 68.8604C19.5975 69.1221 19.6398 69.3697 19.7198 69.5893C19.8045 69.8089 19.9222 70.0005 20.0775 70.1641C20.2328 70.3276 20.4164 70.4538 20.6329 70.5425C20.8494 70.6313 21.0894 70.678 21.3577 70.678C21.6259 70.678 21.866 70.6453 22.0636 70.5846C22.2613 70.5239 22.4213 70.4631 22.539 70.3977V69.4819H21.5224V68.3371H23.7439V71.2855L23.7344 71.2715Z" fill="#0F8BA0"/>
<path id="Vector_30" d="M25.6211 66.0288H26.873V71.6687H25.6211V66.0288Z" fill="#0F8BA0"/>
<path id="Vector_31" d="M29.912 67.1318H28.293V66.0337H32.7829V67.1318H31.1639V71.6689H29.912V67.1318Z" fill="#0F8BA0"/>
<path id="Vector_32" d="M35.3474 66.0288H36.3828L38.8537 71.6687H37.4418L36.9523 70.4725H34.745L34.2696 71.6687H32.8906L35.3427 66.0288H35.3474ZM35.8275 67.6689L35.1356 69.4211H36.524L35.8275 67.6689Z" fill="#0F8BA0"/>
<path id="Vector_33" d="M40.2734 66.0286H41.5254V70.519H43.8409V71.6638H40.2734V66.0239V66.0286Z" fill="#0F8BA0"/>
</g>
<g id="Group_3">
<path id="Vector_34" d="M47.8555 66.1878H49.6816C50.124 66.1878 50.5429 66.2392 50.9429 66.3326C51.343 66.4308 51.6865 66.5896 51.983 66.8092C52.2795 67.0288 52.5149 67.3139 52.689 67.6643C52.8631 68.0148 52.9526 68.44 52.9526 68.94C52.9526 69.3839 52.8679 69.7764 52.6984 70.1128C52.529 70.4492 52.3031 70.7342 52.016 70.9632C51.7289 71.1922 51.3994 71.3651 51.0276 71.4865C50.6511 71.6034 50.2605 71.6641 49.851 71.6641H47.8602V66.1831L47.8555 66.1878ZM49.0744 70.5567H49.7051C49.9875 70.5567 50.2464 70.5287 50.4911 70.4726C50.7358 70.4165 50.9429 70.3231 51.117 70.1922C51.2959 70.0614 51.4324 69.8885 51.5359 69.6736C51.6395 69.4586 51.6865 69.1969 51.6865 68.8886C51.6865 68.6222 51.6348 68.3886 51.5359 68.1877C51.4324 67.9914 51.2959 67.8232 51.1265 67.697C50.957 67.5662 50.7547 67.4727 50.524 67.4073C50.2934 67.3419 50.0487 67.3092 49.7945 67.3092H49.0791V70.5614L49.0744 70.5567Z" fill="#0F8BA0"/>
<path id="Vector_35" d="M54.6063 66.1875H58.3573V67.3043H55.8205V68.3276H58.2161V69.4443H55.8205V70.5611H58.4938V71.6778H54.6016V66.1968L54.6063 66.1875Z" fill="#0F8BA0"/>
<path id="Vector_36" d="M60.2539 66.1875H62.0941L63.3649 69.7667H63.379L64.6592 66.1875H66.49V71.6685H65.271V67.4631H65.2569L63.8073 71.6685H62.8801L61.4823 67.4631H61.4682V71.6685H60.2539V66.1875Z" fill="#0F8BA0"/>
<path id="Vector_37" d="M68.0977 68.9306C68.0977 68.4914 68.173 68.0942 68.3189 67.7391C68.4648 67.3839 68.6718 67.0802 68.9401 66.8279C69.2037 66.5756 69.519 66.384 69.8861 66.2532C70.2485 66.1177 70.6486 66.0522 71.0816 66.0522C71.5145 66.0522 71.9099 66.1177 72.277 66.2532C72.6394 66.3887 72.9547 66.5803 73.223 66.8279C73.4866 67.0802 73.6936 67.3793 73.8442 67.7391C73.9901 68.0942 74.0655 68.4914 74.0655 68.9306C74.0655 69.3698 73.9901 69.767 73.8442 70.1221C73.6983 70.4772 73.4913 70.781 73.223 71.0333C72.9594 71.2856 72.6441 71.4772 72.277 71.608C71.9146 71.7435 71.5145 71.8089 71.0816 71.8089C70.6486 71.8089 70.2532 71.7435 69.8861 71.608C69.5237 71.4725 69.2084 71.2809 68.9401 71.0333C68.6765 70.781 68.4695 70.4772 68.3189 70.1221C68.173 69.767 68.0977 69.3698 68.0977 68.9306ZM69.359 68.9306C69.359 69.1876 69.4013 69.4259 69.4814 69.6408C69.5614 69.8558 69.679 70.0427 69.8296 70.1969C69.9802 70.3557 70.1591 70.4772 70.3709 70.566C70.5827 70.6548 70.818 70.6968 71.0768 70.6968C71.3357 70.6968 71.571 70.6548 71.7828 70.566C71.9946 70.4772 72.1735 70.3557 72.3241 70.1969C72.4747 70.038 72.5923 69.8558 72.6723 69.6408C72.7524 69.4259 72.7947 69.1923 72.7947 68.9306C72.7947 68.6689 72.7524 68.4446 72.6723 68.225C72.5923 68.0054 72.4747 67.8232 72.3241 67.6643C72.1735 67.5054 71.9946 67.3839 71.7828 67.2952C71.571 67.2064 71.3357 67.1643 71.0768 67.1643C70.818 67.1643 70.5827 67.2064 70.3709 67.2952C70.1591 67.3839 69.9802 67.5054 69.8296 67.6643C69.679 67.8232 69.5614 68.0101 69.4814 68.225C69.4013 68.44 69.359 68.6783 69.359 68.9306Z" fill="#0F8BA0"/>
<path id="Vector_38" d="M79.2712 67.6131C79.1536 67.4683 79.003 67.3561 78.8288 67.2814C78.6547 67.2019 78.4523 67.1645 78.2264 67.1645C78.0005 67.1645 77.784 67.2066 77.591 67.2954C77.3981 67.3842 77.2286 67.5056 77.0827 67.6645C76.9415 67.8234 76.8286 68.0103 76.7486 68.2252C76.6686 68.4402 76.6262 68.6785 76.6262 68.9308C76.6262 69.1831 76.6686 69.4261 76.7486 69.641C76.8286 69.856 76.9415 70.0429 77.078 70.1971C77.2192 70.3559 77.384 70.4774 77.5722 70.5662C77.7605 70.655 77.9676 70.6971 78.1841 70.6971C78.4335 70.6971 78.6547 70.6457 78.8477 70.5429C79.0406 70.4401 79.2006 70.2952 79.323 70.1083L80.3349 70.8606C80.0996 71.1877 79.8031 71.426 79.4454 71.5802C79.0877 71.7344 78.7159 71.8138 78.3394 71.8138C77.9064 71.8138 77.511 71.7484 77.1439 71.6129C76.7815 71.4774 76.4662 71.2858 76.1979 71.0382C75.9344 70.7858 75.7273 70.4821 75.5767 70.127C75.4308 69.7719 75.3555 69.3747 75.3555 68.9355C75.3555 68.4962 75.4308 68.0991 75.5767 67.7439C75.7226 67.3888 75.9297 67.0851 76.1979 66.8328C76.4615 66.5805 76.7768 66.3889 77.1439 66.2581C77.5063 66.1225 77.9064 66.0571 78.3394 66.0571C78.4947 66.0571 78.6594 66.0712 78.8288 66.0992C78.9983 66.1272 79.163 66.1739 79.3277 66.2347C79.4925 66.2954 79.6478 66.3795 79.7984 66.4823C79.949 66.5851 80.0855 66.7113 80.2031 66.8608L79.2665 67.6178L79.2712 67.6131Z" fill="#0F8BA0"/>
<path id="Vector_39" d="M81.7852 66.1875H83.9219C84.2043 66.1875 84.4678 66.2155 84.722 66.2669C84.9761 66.3183 85.1973 66.4118 85.3856 66.5379C85.5739 66.6641 85.7245 66.837 85.8374 67.0473C85.9504 67.2622 86.0069 67.5286 86.0069 67.851C86.0069 68.2388 85.9033 68.5659 85.7009 68.8369C85.4986 69.1079 85.202 69.2808 84.8114 69.3509L86.2139 71.6685H84.7549L83.6019 69.477H82.9994V71.6685H81.7852V66.1875ZM82.9994 68.4584H83.7148C83.8231 68.4584 83.9407 68.4584 84.0631 68.4491C84.1855 68.4397 84.2937 68.4163 84.3925 68.379C84.4914 68.3416 84.5714 68.2808 84.6373 68.1967C84.7032 68.1126 84.7361 67.9958 84.7361 67.8463C84.7361 67.7061 84.7079 67.594 84.6514 67.5145C84.5949 67.4304 84.5196 67.3697 84.4349 67.323C84.3455 67.2809 84.2466 67.2482 84.129 67.2342C84.016 67.2202 83.9031 67.2108 83.7948 67.2108H82.9994V68.4584Z" fill="#0F8BA0"/>
<path id="Vector_40" d="M89.4378 66.1875H90.4449L92.8452 71.6685H91.471L90.9956 70.505H88.8495L88.3882 71.6685H87.0469L89.4331 66.1875H89.4378ZM89.9037 67.7809L89.2307 69.4864H90.5814L89.9037 67.7809Z" fill="#0F8BA0"/>
<path id="Vector_41" d="M97.7908 67.6131C97.6731 67.4683 97.5225 67.3561 97.3484 67.2814C97.1742 67.2019 96.9718 67.1645 96.7459 67.1645C96.52 67.1645 96.3035 67.2066 96.1106 67.2954C95.9176 67.3842 95.7482 67.5056 95.6023 67.6645C95.4611 67.8234 95.3481 68.0103 95.2681 68.2252C95.1881 68.4402 95.1457 68.6785 95.1457 68.9308C95.1457 69.1831 95.1881 69.4261 95.2681 69.641C95.3481 69.856 95.4611 70.0429 95.5976 70.1971C95.7388 70.3559 95.9035 70.4774 96.0917 70.5662C96.28 70.655 96.4871 70.6971 96.7036 70.6971C96.953 70.6971 97.1742 70.6457 97.3672 70.5429C97.5602 70.4401 97.7202 70.2952 97.8425 70.1083L98.8544 70.8606C98.6191 71.1877 98.3226 71.426 97.9649 71.5802C97.6072 71.7344 97.2354 71.8138 96.8589 71.8138C96.4259 71.8138 96.0306 71.7484 95.6635 71.6129C95.3011 71.4774 94.9857 71.2858 94.7175 71.0382C94.4539 70.7858 94.2468 70.4821 94.0962 70.127C93.9503 69.7719 93.875 69.3747 93.875 68.9355C93.875 68.4962 93.9503 68.0991 94.0962 67.7439C94.2421 67.3888 94.4492 67.0851 94.7175 66.8328C94.981 66.5805 95.2963 66.3889 95.6635 66.2581C96.0258 66.1225 96.4259 66.0571 96.8589 66.0571C97.0142 66.0571 97.1789 66.0712 97.3484 66.0992C97.5178 66.1272 97.6825 66.1739 97.8473 66.2347C98.012 66.2954 98.1673 66.3795 98.3179 66.4823C98.4685 66.5851 98.605 66.7113 98.7227 66.8608L97.7861 67.6178L97.7908 67.6131Z" fill="#0F8BA0"/>
<path id="Vector_42" d="M101.654 69.3322L99.5781 66.1875H101.089L102.261 68.2388L103.499 66.1875H104.943L102.868 69.3322V71.6685H101.649V69.3322H101.654Z" fill="#0F8BA0"/>
</g>
</g>
<defs>
<clipPath id="clip0_1118_18405">
<rect width="133" height="82" fill="white"/>
</clipPath>
</defs>
</svg>
