<?xml version="1.0" encoding="UTF-8" standalone="no"?>
<svg
   width="132.994"
   height="57.667"
   fill="none"
   viewBox="0 0 132.994 57.667"
   class="w-32 h-20 relative"
   version="1.1"
   id="svg8"
   sodipodi:docname="logo.svg"
   xmlns:inkscape="http://www.inkscape.org/namespaces/inkscape"
   xmlns:sodipodi="http://sodipodi.sourceforge.net/DTD/sodipodi-0.dtd"
   xmlns="http://www.w3.org/2000/svg"
   xmlns:svg="http://www.w3.org/2000/svg">
  <sodipodi:namedview
     id="namedview8"
     pagecolor="#ffffff"
     bordercolor="#000000"
     borderopacity="0.25"
     inkscape:showpageshadow="2"
     inkscape:pageopacity="0.0"
     inkscape:pagecheckerboard="0"
     inkscape:deskcolor="#d1d1d1" />
  <g
     clip-path="url(#a)"
     id="g8"
     transform="translate(0,0.002)">
    <path
       fill="#015c6b"
       d="m 51.757,28.11 a 26.45,26.45 0 0 0 -1.6,-5.392 C 49.409,20.915 48.387,19.139 47.112,17.433 45.812,15.7 44.165,14.144 42.217,12.817 40.278,11.495 37.972,10.429 35.355,9.649 32.748,8.869 29.698,8.476 26.281,8.476 H 14.835 v 6.266 H 8.523 v 42.923 h 16.708 c 4.34,0 8.237,-0.696 11.578,-2.07 3.347,-1.374 6.199,-3.234 8.481,-5.518 a 23.276,23.276 0 0 0 5.196,-7.879 24.699,24.699 0 0 0 1.746,-9.13 c 0,-1.514 -0.164,-3.182 -0.484,-4.957 h 0.009 z M 25.241,54.558 H 11.663 V 17.854 h 3.158 V 51.81 h 9.497 c 2.805,0 5.507,-0.383 8.025,-1.14 2.565,-0.771 4.847,-1.949 6.787,-3.5 1.967,-1.57 3.543,-3.556 4.687,-5.901 1.149,-2.35 1.732,-5.108 1.732,-8.196 0,-1.589 -0.259,-3.453 -0.767,-5.542 -0.527,-2.168 -1.534,-4.252 -2.984,-6.191 -1.468,-1.958 -3.51,-3.63 -6.067,-4.972 -2.574,-1.35 -5.91,-2.032 -9.907,-2.032 H 17.97 v -2.748 h 8.317 c 3.106,0 5.855,0.35 8.17,1.042 2.306,0.687 4.32,1.617 5.991,2.752 1.662,1.131 3.06,2.449 4.151,3.906 1.12,1.496 2.015,3.047 2.66,4.608 a 23.621,23.621 0 0 1 1.416,4.761 c 0.287,1.598 0.433,3.084 0.433,4.411 0,2.738 -0.513,5.425 -1.53,7.99 -1.006,2.547 -2.527,4.841 -4.508,6.832 -1.986,1.99 -4.49,3.616 -7.45,4.831 -2.965,1.22 -6.458,1.837 -10.383,1.837 h 0.005 z M 39.29,23.195 c 1.2,1.603 2.023,3.308 2.456,5.065 0.452,1.85 0.678,3.467 0.678,4.808 0,2.612 -0.475,4.916 -1.416,6.84 -0.942,1.93 -2.231,3.557 -3.836,4.837 -1.629,1.299 -3.554,2.29 -5.733,2.944 -2.226,0.668 -4.622,1.01 -7.116,1.01 H 17.96 V 17.442 h 7.874 c 3.483,0 6.325,0.565 8.448,1.673 2.137,1.121 3.826,2.49 5.012,4.074 l -0.004,0.005 z"
       id="path1"
       inkscape:export-filename="path1.svg"
       inkscape:export-xdpi="96"
       inkscape:export-ydpi="96" />
    <path
       fill="#ebb785"
       d="M 6.643,13.188 13.285,6.593 6.643,-0.002 0,6.593 Z"
       id="path2" />
    <path
       fill="#0f8ba0"
       d="m 57,9.438 v 6.425 h 6.476 V 50.277 H 57 v 6.425 H 76.405 V 50.277 H 69.929 V 15.863 h 6.476 V 9.438 Z m 49.774,0 -20.981,47.264 h 7.53 L 98.03,45.021 h 22.661 l 4.773,11.681 h 7.53 L 112.62,9.438 h -5.85 z m -6.457,29.975 9.013,-21.695 h 0.136 l 8.877,21.695 z"
       id="path3" />
  </g>
  <defs
     id="defs8">
    <clipPath
       id="a">
      <path
         fill="#ffffff"
         d="M 0,0 H 133 V 82 H 0 Z"
         id="path8" />
    </clipPath>
  </defs>
</svg>
