<?xml version="1.0" encoding="UTF-8"?>
<svg id="Capa_2" data-name="Capa 2" xmlns="http://www.w3.org/2000/svg" viewBox="0 0 236.92 236.92">
  <defs>
    <style>
      .cls-1 {
        fill: #8cefef;
      }

      .cls-1, .cls-2, .cls-3 {
        stroke-width: 0px;
      }

      .cls-2 {
        fill: #015c6b;
      }

      .cls-3 {
        fill: #e6b280;
      }
    </style>
  </defs>
  <g id="Capa_1-2" data-name="Capa 1">
    <g>
      <circle class="cls-2" cx="118.46" cy="118.46" r="118.46"/>
      <path class="cls-1" d="m115.78,190.51h-40.64v-106h15.89v-15.89h27.39c8.46,0,16,.98,22.43,2.91,6.44,1.94,12.12,4.58,16.88,7.85,4.77,3.28,8.8,7.11,11.98,11.38,3.14,4.22,5.66,8.63,7.49,13.09,1.82,4.44,3.15,8.94,3.95,13.38h0c.79,4.43,1.19,8.58,1.19,12.33,0,7.76-1.45,15.37-4.3,22.62-2.86,7.27-7.16,13.83-12.77,19.5-5.6,5.66-12.63,10.26-20.88,13.68-8.25,3.41-17.88,5.14-28.61,5.14Zm-35.64-5h35.64c10.08,0,19.06-1.6,26.7-4.76,7.63-3.16,14.1-7.39,19.24-12.57,5.13-5.18,9.05-11.18,11.67-17.81,2.62-6.67,3.95-13.66,3.95-20.79,0-3.46-.38-7.31-1.12-11.45h0c-.74-4.1-1.96-8.26-3.65-12.37-1.67-4.08-3.99-8.12-6.88-12.01-2.85-3.83-6.49-7.28-10.8-10.24-4.33-2.97-9.54-5.39-15.48-7.18-5.96-1.79-13.02-2.7-20.99-2.7h-22.39v9.86h21.23c9.83,0,18,1.68,24.28,4.99,6.24,3.29,11.22,7.4,14.79,12.19,3.54,4.76,5.99,9.87,7.28,15.19,1.25,5.18,1.89,9.8,1.89,13.71,0,7.61-1.42,14.39-4.21,20.16-2.79,5.76-6.63,10.63-11.41,14.48-4.75,3.82-10.34,6.72-16.61,8.62-6.21,1.88-12.87,2.83-19.79,2.83h-22.48v-86.14h-10.85v96Zm15.85-14.86h17.48c6.43,0,12.61-.88,18.35-2.62,5.66-1.71,10.68-4.31,14.92-7.73,4.2-3.38,7.58-7.68,10.05-12.76,2.46-5.08,3.71-11.13,3.71-17.98,0-3.52-.59-7.74-1.75-12.54-1.13-4.66-3.29-9.16-6.43-13.38-3.12-4.19-7.53-7.81-13.11-10.75-5.55-2.93-12.94-4.42-21.95-4.42h-21.27v82.17Z"/>
      <rect class="cls-3" x="58.52" y="51.81" width="21.01" height="21.01" transform="translate(161.89 57.57) rotate(135)"/>
    </g>
  </g>
</svg>