<?xml version="1.0" encoding="UTF-8"?>
<svg id="Capa_2" data-name="Capa 2" xmlns="http://www.w3.org/2000/svg" viewBox="0 0 190.38 190.38">
  <defs>
    <style>
      .cls-1 {
        fill: #0f869b;
        fill-rule: evenodd;
        stroke-width: 0px;
      }
    </style>
  </defs>
  <g id="Capa_1-2" data-name="Capa 1">
    <g>
      <path class="cls-1" d="m94.08,0C61.63.51,35.91,23.52,29.8,52.35c-4.54,21.41,1.06,42.91,15.36,58.98,7.09,7.96,10.99,17.94,10.99,28.1v11.89c0,7.43,4.86,13.74,11.57,15.92,2.28,13.12,13.73,23.13,27.48,23.13s25.21-10.01,27.47-23.13c6.71-2.18,11.58-8.49,11.58-15.92v-11.89c0-10.03,4.02-20.15,11.31-28.48,10.68-12.18,16.57-27.83,16.57-44.03C162.12,29.12,131.16-.56,94.08,0h0Zm1.12,179.21c-7.28,0-13.48-4.7-15.78-11.19h31.56c-2.3,6.49-8.5,11.19-15.77,11.19h0Zm27.89-27.89c0,3.08-2.51,5.58-5.58,5.58h-44.62c-3.07,0-5.58-2.51-5.58-5.58v-6.32h55.78v6.32h0Zm14.09-47.72c-7.76,8.85-12.54,19.42-13.77,30.24h-19.18l21.94-43.88s0-.02,0-.02l7.48-14.95c1.38-2.76.26-6.1-2.49-7.49-2.76-1.38-6.11-.26-7.49,2.5l-3.97,7.95-9.4-9.4c-2.18-2.17-5.71-2.17-7.89,0l-7.21,7.22-7.21-7.21c-2.18-2.18-5.71-2.18-7.89,0l-9.4,9.4-3.98-7.95c-1.38-2.76-4.73-3.87-7.49-2.5-2.76,1.38-3.87,4.73-2.49,7.49l7.48,14.96s0,0,0,.02l21.94,43.88h-19.17c-1.2-10.9-5.89-21.37-13.51-29.94-11.91-13.39-16.57-31.34-12.77-49.25,5.02-23.67,26.42-43.38,54.1-43.51,30.72-.15,56.15,24.52,56.15,55.77,0,13.5-4.9,26.53-13.8,36.69h0Zm-41.98,23.35l-19.24-38.49,8.09-8.09,7.21,7.21c2.18,2.18,5.71,2.18,7.89,0l7.21-7.21,8.09,8.09-19.24,38.49Z"/>
      <path class="cls-1" d="m16.73,66.92H5.57c-3.08,0-5.57,2.5-5.57,5.57s2.49,5.58,5.57,5.58h11.15c3.08,0,5.58-2.49,5.58-5.58s-2.5-5.57-5.58-5.57Z"/>
      <path class="cls-1" d="m19.04,39.03l-7.88-7.89c-2.18-2.17-5.71-2.17-7.89,0-2.18,2.18-2.18,5.71,0,7.89l7.89,7.89c2.18,2.18,5.71,2.18,7.88,0,2.18-2.18,2.18-5.71,0-7.89Z"/>
      <path class="cls-1" d="m19.04,98.08c-2.18-2.18-5.7-2.18-7.88,0l-7.89,7.89c-2.18,2.17-2.18,5.7,0,7.88,2.18,2.18,5.71,2.18,7.89,0l7.88-7.88c2.18-2.18,2.18-5.71,0-7.89Z"/>
      <path class="cls-1" d="m184.81,66.92h-11.53c-3.08,0-5.57,2.5-5.57,5.57s2.5,5.58,5.57,5.58h11.53c3.07,0,5.57-2.49,5.57-5.58s-2.5-5.57-5.57-5.57Z"/>
      <path class="cls-1" d="m187.21,31.24c-2.12-2.23-5.65-2.31-7.88-.18l-8.26,7.89c-2.23,2.13-2.31,5.66-.18,7.88,2.13,2.23,5.66,2.31,7.88.18l8.26-7.88c2.23-2.13,2.31-5.66.18-7.89Z"/>
      <path class="cls-1" d="m187.03,105.88l-8.26-7.89c-2.23-2.12-5.76-2.04-7.88.19-2.13,2.22-2.05,5.76.18,7.88l8.26,7.89c2.23,2.13,5.76,2.04,7.88-.18,2.13-2.23,2.05-5.76-.18-7.89Z"/>
    </g>
  </g>
</svg>