<?xml version="1.0" encoding="UTF-8"?>
<svg id="Capa_2" data-name="Capa 2" xmlns="http://www.w3.org/2000/svg" viewBox="0 0 169.66 169.68">
  <defs>
    <style>
      .cls-1 {
        fill: #0f869b;
        fill-rule: evenodd;
        stroke-width: 0px;
      }
    </style>
  </defs>
  <g id="Capa_1-2" data-name="Capa 1">
    <g>
      <path class="cls-1" d="m165.29,53.4c-5.81-5.82-15.27-5.82-21.09,0-1.79,1.79-13.21,13.22-14.95,14.97V28.98c0-3.99-1.55-7.73-4.37-10.55l-14.06-14.06c-2.82-2.82-6.57-4.37-10.55-4.37H14.91C6.69,0,0,6.69,0,14.91v139.85c0,8.22,6.69,14.91,14.91,14.91h99.42c8.22,0,14.91-6.7,14.91-14.91v-44.2l36.05-36.08c5.83-5.83,5.83-15.26,0-21.09h0ZM99.42,9.95c.94,0,2.75-.17,4.37,1.46l14.06,14.06c1.58,1.58,1.46,3.31,1.46,4.36h-19.89V9.95h0Zm19.89,144.82c0,2.74-2.23,4.97-4.97,4.97H14.91c-2.73,0-4.96-2.23-4.96-4.97V14.91c0-2.74,2.23-4.97,4.96-4.97h74.57v24.85c0,2.75,2.22,4.97,4.97,4.97h24.85v38.55l-14.67,14.68-7.03,7.03c-.54.54-.96,1.21-1.2,1.94l-7.03,21.09c-.59,1.79-.13,3.76,1.2,5.09,1.33,1.33,3.3,1.8,5.09,1.2l21.09-7.03c.73-.25,1.4-.65,1.95-1.2l.6-.6v34.26h0Zm-11.15-51.23l7.03,7.03-2.69,2.68-10.55,3.52,3.52-10.55,2.68-2.69h0Zm14.06,0l-7.03-7.03c3.74-3.75,20.37-20.39,23.9-23.92l7.03,7.03-23.9,23.92h0Zm36.05-36.08l-5.13,5.13-7.03-7.03,5.13-5.13c1.94-1.94,5.09-1.94,7.03,0,1.94,1.94,1.95,5.08,0,7.03Z"/>
      <path class="cls-1" d="m94.45,49.71H24.86c-2.75,0-4.97,2.23-4.97,4.97s2.22,4.97,4.97,4.97h69.59c2.75,0,4.97-2.23,4.97-4.97s-2.22-4.97-4.97-4.97Z"/>
      <path class="cls-1" d="m74.57,69.6H24.86c-2.75,0-4.97,2.22-4.97,4.97s2.22,4.97,4.97,4.97h49.71c2.74,0,4.96-2.22,4.96-4.97s-2.22-4.97-4.96-4.97Z"/>
      <path class="cls-1" d="m74.57,89.48H24.86c-2.75,0-4.97,2.22-4.97,4.97s2.22,4.96,4.97,4.96h49.71c2.74,0,4.96-2.22,4.96-4.96s-2.22-4.97-4.96-4.97Z"/>
      <path class="cls-1" d="m74.57,109.37H24.86c-2.75,0-4.97,2.22-4.97,4.97s2.22,4.97,4.97,4.97h49.71c2.74,0,4.96-2.22,4.96-4.97s-2.22-4.97-4.96-4.97Z"/>
      <path class="cls-1" d="m94.45,139.86h-29.83c-2.75,0-4.97,2.22-4.97,4.96s2.22,4.97,4.97,4.97h29.83c2.75,0,4.97-2.23,4.97-4.97s-2.22-4.96-4.97-4.96Z"/>
    </g>
  </g>
</svg>