<svg width="56" height="56" viewBox="0 0 56 56" fill="none" xmlns="http://www.w3.org/2000/svg">
<g id="Modo_de_aislamiento" clip-path="url(#clip0_1118_18402)">
<path id="Vector" fill-rule="evenodd" clip-rule="evenodd" d="M6.5625 21.3288C6.5625 29.4724 13.1884 36.0986 21.3283 36.0986C29.4682 36.0986 36.0973 29.4724 36.0973 21.3288C36.0973 13.1852 29.4714 6.56211 21.3283 6.56211C13.1852 6.56211 6.5625 13.1852 6.5625 21.3288ZM32.8164 21.3288C32.8164 27.6605 27.6629 32.8175 21.3283 32.8175C14.9937 32.8175 9.84664 27.6637 9.84664 21.3288C9.84664 14.9938 14.9969 9.84644 21.3283 9.84643C27.6597 9.84643 32.8164 14.997 32.8164 21.3288Z" fill="#0F8BA0"/>
<path id="Vector_2" fill-rule="evenodd" clip-rule="evenodd" d="M-1.51556e-06 21.3286C-1.00133e-06 33.0926 9.56753 42.6607 21.3277 42.6607C26.5836 42.6607 31.3978 40.7497 35.1204 37.587L37.902 40.3655L36.7401 41.5275C36.0967 42.1677 36.0999 43.2145 36.7497 43.8547C36.7497 43.8547 47.5976 54.5624 47.6008 54.5624C49.5182 56.4799 52.6422 56.4799 54.5596 54.5624C56.4769 52.6449 56.4769 49.5239 54.5596 47.6032C54.5596 47.6032 54.5532 47.5968 54.55 47.5968L43.6925 36.8827C43.0523 36.2489 42.0184 36.2521 41.3814 36.8891L40.2195 38.0511L37.4539 35.2822C40.6964 31.5401 42.6586 26.6616 42.6586 21.335C42.6586 9.57417 33.0911 0.00609444 21.3309 0.00609495C9.57073 0.00609547 -2.0295e-06 9.57097 -1.51556e-06 21.3286ZM52.2453 49.924C52.8823 50.5642 52.8791 51.6014 52.2421 52.2416C51.6019 52.8818 50.5616 52.8818 49.9151 52.2352L44.9024 47.2863L47.2231 44.9687L52.2453 49.924ZM44.8864 42.6607L42.569 44.9815L40.2323 42.6767L42.5498 40.3559L44.8864 42.6607ZM39.3776 21.3286C39.3777 31.2808 31.2825 39.3764 21.3309 39.3764C11.3793 39.3764 3.28094 31.2808 3.28094 21.3286C3.28094 11.3764 11.376 3.28081 21.3277 3.28081C31.2793 3.28081 39.3744 11.3796 39.3744 21.3286L39.3776 21.3286Z" fill="#0F8BA0"/>
</g>
<defs>
<clipPath id="clip0_1118_18402">
<rect width="56" height="56" fill="white" transform="translate(0 56) rotate(-90)"/>
</clipPath>
</defs>
</svg>
