<?xml version="1.0" encoding="UTF-8"?>
<svg id="Capa_2" data-name="Capa 2" xmlns="http://www.w3.org/2000/svg" viewBox="0 0 215.31 215.31">
  <defs>
    <style>
      .cls-1 {
        fill: #0f869b;
        fill-rule: evenodd;
        stroke-width: 0px;
      }
    </style>
  </defs>
  <g id="Capa_1-2" data-name="Capa 1">
    <g>
      <path class="cls-1" d="m209,101.77c-3.48,0-6.22,2.82-6.22,6.31,0,52.16-42.92,94.7-95.55,94.7-29.86,0-57.94-14.43-75.69-38.02,13.31,0,14.36.16,16.03-.93,15.95,17.13,37.33,26.24,59.66,26.24,45.2,0,82.84-37.5,82.84-82.84,0-15.86-4.59-31.06-13.15-44.16h19.47c3.48,0,6.3-2.82,6.3-6.3v-25.23c0-3.49-2.82-6.31-6.3-6.31s-6.31,2.82-6.31,6.31v6.64C169.79,14.27,139.48,0,107.23,0,47.99,0,0,47.93,0,107.23c0,3.49,2.83,6.31,6.31,6.31s6.22-2.82,6.22-6.31C12.53,55.06,55.06,12.53,107.23,12.53c30.33,0,58.71,14.43,76.52,38.02-13.65,0-13.99-.38-16.01.92-16.15-17.11-37.88-26.23-60.51-26.23-45.21,0-82,36.79-82,82,0,16.16,4.64,31.66,13.28,45h-19.59c-3.48,0-6.3,2.82-6.3,6.3v25.23c0,3.48,2.82,6.31,6.3,6.31s6.31-2.83,6.31-6.31v-6.59c20.42,24.21,50.31,38.14,82,38.14,58.83,0,108.07-47.52,108.07-107.23,0-3.49-2.83-6.31-6.31-6.31h0Zm-171.24,5.47c0-38.26,31.21-69.47,69.47-69.47s70.31,31.21,70.31,69.47-32.25,70.31-70.31,70.31-69.47-31.59-69.47-70.31Z"/>
      <path class="cls-1" d="m124.42,133.58v10.92c0,1.51-1.23,2.73-2.73,2.73h-25.65c-1.51,0-2.73-1.23-2.73-2.73v-10.92c0-1.51,1.23-2.73,2.73-2.73h5.27v-23.61h-2.73c-1.51,0-2.73-1.23-2.73-2.73v-10.92c0-1.51,1.23-2.73,2.73-2.73h15.12c1.51,0,2.73,1.23,2.73,2.73v37.27h5.26c1.51,0,2.73,1.23,2.73,2.73Z"/>
      <path class="cls-1" d="m115.45,74.52c0,4.69-3.81,8.5-8.5,8.5s-8.49-3.81-8.49-8.5,3.81-8.49,8.49-8.49,8.5,3.81,8.5,8.49Z"/>
    </g>
  </g>
</svg>